<?xml version="1.0" encoding="utf-8"?>
<!-- Generator: Adobe Illustrator 16.0.0, SVG Export Plug-In . SVG Version: 6.00 Build 0)  -->
<!DOCTYPE svg PUBLIC "-//W3C//DTD SVG 1.1//EN" "http://www.w3.org/Graphics/SVG/1.1/DTD/svg11.dtd">
<svg version="1.1" xmlns="http://www.w3.org/2000/svg" xmlns:xlink="http://www.w3.org/1999/xlink" x="0px" y="0px" width="583px"
	 height="119px" viewBox="0 0 583 119" enable-background="new 0 0 583 119" xml:space="preserve">
<g id="Capa_1">
	<g>
		<path d="M87.775,30.455c0,6.124-5.506,15.805-16.516,29.042c3.958,2.723,5.938,5.103,5.938,7.145c0,1.361-0.649,2.196-1.949,2.504
			c-6.063,1.485-12.155,3.403-18.279,5.753c-9.093,8.908-18.063,16.299-26.908,22.175c-8.847,5.877-15.991,8.815-21.433,8.815
			c-2.288,0-4.299-1.191-6.032-3.573C0.867,99.936,0,97.539,0,95.126c0-4.454,1.562-8.754,4.686-12.897
			c3.124-4.144,7.098-7.702,11.922-10.671c4.826-2.969,10.083-5.598,15.774-7.887c11.257-4.514,21.248-6.773,29.969-6.773
			c0.742,0,1.793,0.063,3.155,0.186c8.968-9.71,13.454-16.175,13.454-19.392c0-1.485-1.053-2.227-3.155-2.227
			c-2.909,0-7.038,0.944-12.387,2.831c-5.352,1.888-10.13,4.051-14.336,6.494c-4.207,2.445-6.309,4.347-6.309,5.707
			c0,0.434,0.68,0.649,2.042,0.649l7.237-0.928c1.67,0,2.505,0.557,2.505,1.67c0,1.238-1.285,2.258-3.851,3.062
			c-2.568,0.804-4.997,1.206-7.284,1.206c-4.888,0-9.14-1.16-12.758-3.479c-3.619-2.32-5.428-5.521-5.428-9.603
			c0-3.401,2.583-7.191,7.748-11.367c5.164-4.175,11.458-7.701,18.882-10.578c7.422-2.876,13.854-4.314,19.299-4.314
			C82.239,16.815,87.775,21.361,87.775,30.455z M14.66,99.766c0,0.186,0.123,0.278,0.371,0.278c1.423,0,4.438-1.686,9.047-5.057
			c4.607-3.373,9.912-7.718,15.913-13.037c-7.422,3.525-13.5,6.912-18.232,10.16C17.026,95.358,14.66,97.91,14.66,99.766z"/>
		<path d="M102.157,59.125c0,1.67,0.989,2.505,2.97,2.505c1.855,0,3.897-0.463,6.124-1.392c2.227-0.928,3.432-1.392,3.618-1.392
			c0.186,0,0.386,0.155,0.604,0.464c0.215,0.31,0.324,0.619,0.324,0.928c0,0.681-1.438,1.563-4.314,2.645
			c-2.876,1.083-4.964,1.624-6.264,1.624c-1.299,0-2.211-0.014-2.736-0.046c-0.526-0.03-0.943,0.295-1.252,0.975
			c-4.579,8.599-9.125,14.01-13.64,16.237c-1.98,0.989-4.068,1.484-6.263,1.484c-2.197,0-3.99-0.727-5.382-2.18
			c-1.392-1.453-2.088-3.758-2.088-6.913c0-4.392,1.438-8.489,4.314-12.293c2.877-3.806,6.139-6.666,9.79-8.583
			c3.648-1.917,6.958-2.877,9.928-2.877c5.01,0.557,7.515,2.073,7.515,4.547c0,0.681-0.171,1.284-0.51,1.809
			c-0.341,0.526-0.619,0.835-0.835,0.928c-0.218,0.093-0.48,0.171-0.789,0.232C102.528,58.012,102.157,58.445,102.157,59.125z
			 M94.548,63.394c-1.98,1.485-3.913,3.372-5.799,5.66c-1.888,2.289-2.83,4.161-2.83,5.613c0,1.454,0.402,2.181,1.207,2.181
			c1.236,0,3.509-1.903,6.82-5.707c3.308-3.805,4.964-6.942,4.964-9.418c0-0.371-0.232-0.556-0.696-0.556
			C97.75,61.167,96.527,61.909,94.548,63.394z"/>
		<path d="M149.153,76.755c-2.197,1.669-4.825,3.279-7.887,4.824c-3.062,1.546-5.629,2.32-7.702,2.32
			c-2.073,0-3.727-0.618-4.964-1.855c-1.238-1.237-1.855-2.751-1.855-4.546c0-2.97,2.134-6.959,6.402-11.97
			c0.371-0.371,0.557-0.664,0.557-0.881c0-0.216-0.063-0.325-0.186-0.325c-0.125,0-0.572,0.139-1.346,0.417
			c-0.774,0.278-2.892,1.702-6.355,4.268c-3.465,2.567-6.836,5.289-10.114,8.166c-3.279,2.876-5.613,4.315-7.005,4.315
			c-1.393,0-2.413-0.588-3.062-1.763c-0.65-1.174-0.975-2.505-0.975-3.99c0-4.577,3.572-11.536,10.717-20.877
			c7.144-9.34,14.613-17.676,22.407-25.006c7.794-7.331,12.772-10.995,14.938-10.995c1.051,0,2.056,0.449,3.016,1.345
			c0.958,0.898,1.438,2.104,1.438,3.619c0,1.516-1.855,4.871-5.567,10.067c-3.712,5.196-7.856,10.67-12.433,16.423
			c-5.753,7.177-8.629,11.074-8.629,11.691c0,0.248,0.124,0.371,0.371,0.371c0.248,0,1.3-0.51,3.155-1.53
			c1.856-1.021,3.865-1.979,6.031-2.877c2.165-0.895,3.665-1.421,4.5-1.577c0.835-0.153,1.824-0.231,2.969-0.231
			c1.144,0,2.288,0.248,3.434,0.742c1.144,0.496,1.716,1.223,1.716,2.181c0,0.959-2.243,4.022-6.727,9.186
			c-4.485,5.166-6.727,8.104-6.727,8.815c0,0.711,0.308,1.067,0.927,1.067c1.299,0,3.835-1.36,7.608-4.083
			c1.423-0.988,2.258-1.545,2.505-1.67c0.247-0.123,0.525-0.185,0.835-0.185c0.866,0,1.299,0.434,1.299,1.299
			C152.446,74.003,151.348,75.084,149.153,76.755z"/>
		<path d="M176.663,77.405c0,0.31,0.216,0.526,0.649,0.649c0.432,0,1.932-0.881,4.5-2.644c2.566-1.763,4.021-2.738,4.361-2.923
			c0.339-0.186,0.664-0.278,0.974-0.278c0.865,0,1.299,0.417,1.299,1.252c0,0.835-2.18,2.677-6.542,5.521
			c-4.36,2.844-7.438,4.268-9.231,4.268c-0.742,0-1.532-0.31-2.367-0.928c-0.834-0.618-1.252-1.345-1.252-2.18
			c0-0.835,0.216-1.747,0.649-2.737c0.432-0.99,0.649-1.655,0.649-1.995c0-0.339-0.093-0.511-0.278-0.511
			c-0.186,0-0.371,0.063-0.557,0.186c-6.001,4.517-10.424,6.773-13.269,6.773c-1.609,0-2.876-0.588-3.804-1.763
			c-0.928-1.174-1.485-2.35-1.67-3.525l-0.186-1.764c0-2.041,0.789-4.407,2.366-7.098c1.578-2.691,3.649-5.256,6.217-7.701
			c2.566-2.443,5.721-4.5,9.464-6.171c3.741-1.67,7.562-2.505,11.458-2.505c2.102,0,4.067,0.557,5.892,1.67
			c1.824,1.114,2.737,2.413,2.737,3.897s-1.454,2.382-4.36,2.691c-2.167,0.496-5.739,2.273-10.717,5.335
			c-4.98,3.062-7.47,5.398-7.47,7.005c0,0.682,0.34,1.021,1.021,1.021c1.237,0,4.159-1.763,8.768-5.289
			c4.608-3.525,7.376-5.289,8.305-5.289c0.928,0,1.392,0.557,1.392,1.671c0,0.805-0.295,1.563-0.881,2.273
			c-0.589,0.712-1.007,1.222-1.253,1.531c-0.497,0.619-1.763,1.995-3.804,4.129C177.684,74.111,176.663,75.92,176.663,77.405z"/>
		<path d="M222.313,76.94l2.876-1.113c0.865,0,1.299,0.34,1.299,1.021c0,1.609-1.315,3.14-3.944,4.592
			c-2.63,1.453-5.135,2.181-7.516,2.181c-2.382,0-4.222-0.51-5.521-1.531c-1.298-1.021-1.948-2.582-1.948-4.685
			c0-2.103,1.206-4.701,3.618-7.794c0.309-0.309,0.464-0.572,0.464-0.789c0-0.216-0.125-0.325-0.372-0.325
			c-0.248,0-0.463,0.063-0.649,0.186c-0.186,0.125-1.516,0.96-3.99,2.505c-5.938,3.774-10.175,6.403-12.711,7.887
			c-1.053,0.557-2.042,0.835-2.97,0.835c-0.927,0-1.948-0.587-3.063-1.763c-1.113-1.175-1.669-2.35-1.669-3.527
			c0-2.473,3.494-7.005,10.485-13.593c6.989-6.588,11.721-9.881,14.196-9.881c0.928,0.125,1.731,0.649,2.413,1.578
			c0.679,0.928,1.02,2.026,1.02,3.293c0,1.269-0.464,2.645-1.392,4.129c-1.362,2.167-2.459,3.665-3.294,4.5
			c-0.835,0.835-1.253,1.361-1.253,1.577c0,0.218,0.093,0.325,0.279,0.325c0.185,0,0.447-0.107,0.789-0.325
			c0.339-0.216,3.278-2.134,8.815-5.753c5.534-3.619,8.643-5.627,9.324-6.031c0.681-0.402,1.423-0.603,2.227-0.603
			c0.803,0,1.856,0.387,3.154,1.16c1.299,0.775,1.95,1.81,1.95,3.109c0,1.299-1.13,3.217-3.388,5.752
			c-2.258,2.537-4.532,4.98-6.819,7.33c-2.29,2.352-3.434,4.022-3.434,5.01C221.292,76.694,221.632,76.94,222.313,76.94z"/>
		<path d="M264.623,76.94l2.876-1.113c0.865,0,1.299,0.34,1.299,1.021c0,1.609-1.315,3.14-3.943,4.592
			c-2.63,1.453-5.136,2.181-7.516,2.181c-2.383,0-4.222-0.51-5.521-1.531c-1.298-1.021-1.948-2.582-1.948-4.685
			c0-2.103,1.206-4.701,3.618-7.794c0.309-0.309,0.464-0.572,0.464-0.789c0-0.216-0.125-0.325-0.372-0.325
			c-0.248,0-0.463,0.063-0.649,0.186c-0.186,0.125-1.516,0.96-3.99,2.505c-5.938,3.774-10.175,6.403-12.711,7.887
			c-1.053,0.557-2.042,0.835-2.97,0.835c-0.927,0-1.948-0.587-3.062-1.763c-1.113-1.175-1.669-2.35-1.669-3.527
			c0-2.473,3.494-7.005,10.485-13.593c6.989-6.588,11.721-9.881,14.196-9.881c0.927,0.125,1.731,0.649,2.412,1.578
			c0.68,0.928,1.021,2.026,1.021,3.293c0,1.269-0.464,2.645-1.392,4.129c-1.361,2.167-2.458,3.665-3.293,4.5
			c-0.835,0.835-1.253,1.361-1.253,1.577c0,0.218,0.093,0.325,0.279,0.325c0.185,0,0.447-0.107,0.788-0.325
			c0.339-0.216,3.278-2.134,8.815-5.753c5.535-3.619,8.644-5.627,9.325-6.031c0.68-0.402,1.422-0.603,2.227-0.603
			c0.803,0,1.856,0.387,3.154,1.16c1.299,0.775,1.949,1.81,1.949,3.109c0,1.299-1.129,3.217-3.387,5.752
			c-2.258,2.537-4.531,4.98-6.819,7.33c-2.289,2.352-3.433,4.022-3.433,5.01C263.602,76.694,263.941,76.94,264.623,76.94z"/>
		<path d="M298.581,77.405c0,0.31,0.216,0.526,0.649,0.649c0.432,0,1.933-0.881,4.5-2.644c2.566-1.763,4.02-2.738,4.36-2.923
			c0.339-0.186,0.664-0.278,0.975-0.278c0.865,0,1.298,0.417,1.298,1.252c0,0.835-2.18,2.677-6.541,5.521
			c-4.361,2.844-7.438,4.268-9.232,4.268c-0.742,0-1.531-0.31-2.367-0.928c-0.834-0.618-1.252-1.345-1.252-2.18
			c0-0.835,0.216-1.747,0.649-2.737c0.432-0.99,0.65-1.655,0.65-1.995c0-0.339-0.093-0.511-0.279-0.511
			c-0.186,0-0.371,0.063-0.557,0.186c-6,4.517-10.424,6.773-13.269,6.773c-1.609,0-2.876-0.588-3.804-1.763
			c-0.928-1.174-1.484-2.35-1.67-3.525l-0.186-1.764c0-2.041,0.789-4.407,2.367-7.098c1.577-2.691,3.649-5.256,6.216-7.701
			c2.566-2.443,5.721-4.5,9.465-6.171c3.741-1.67,7.561-2.505,11.458-2.505c2.103,0,4.067,0.557,5.892,1.67
			c1.824,1.114,2.737,2.413,2.737,3.897s-1.454,2.382-4.36,2.691c-2.167,0.496-5.739,2.273-10.717,5.335
			c-4.979,3.062-7.47,5.398-7.47,7.005c0,0.682,0.34,1.021,1.021,1.021c1.237,0,4.159-1.763,8.769-5.289
			c4.607-3.525,7.376-5.289,8.304-5.289c0.928,0,1.392,0.557,1.392,1.671c0,0.805-0.294,1.563-0.881,2.273
			c-0.588,0.712-1.006,1.222-1.252,1.531c-0.496,0.619-1.763,1.995-3.804,4.129C299.601,74.111,298.581,75.92,298.581,77.405z"/>
		<path d="M328.55,69.332c0-5.319,1.422-10.87,4.269-16.655c2.844-5.783,6.463-10.995,10.856-15.634
			c4.391-4.639,9.093-8.875,14.103-12.712c5.011-3.834,9.82-6.803,14.429-8.907c4.607-2.102,8.366-3.155,11.273-3.155
			c1.114,0,2.334,0.433,3.665,1.299c1.33,0.868,1.995,1.872,1.995,3.016c0,1.146-1.146,3.28-3.433,6.402
			c-2.289,3.124-5.057,6.666-8.304,10.624c-3.248,3.96-6.511,8.042-9.789,12.249c-3.279,4.207-6.063,8.351-8.352,12.433
			c-2.288,4.082-3.433,7.393-3.433,9.928c0,0.99,0.495,1.484,1.485,1.484c1.856,0,4.7-1.87,8.536-5.613
			c3.834-3.742,8.087-8.289,12.758-13.64c4.669-5.35,9.525-10.7,14.567-16.052c5.041-5.35,10.236-9.896,15.588-13.639
			c5.35-3.742,10.067-5.614,14.15-5.614c1.174,0,2.412,0.325,3.711,0.975c1.299,0.649,1.949,1.36,1.949,2.134
			c0,0.774-0.34,1.377-1.021,1.81c-0.681,0.433-1.84,1.052-3.479,1.856c-1.639,0.804-3.604,1.84-5.892,3.108
			c-2.289,1.268-5.289,3.248-9,5.938c-3.711,2.691-7.733,5.862-12.062,9.511c-10.332,8.722-22.115,20.537-35.352,35.444
			c-5.32,5.938-12.496,8.907-21.526,8.907h-0.093c-2.723,0-5.305-1.716-7.747-5.149C329.957,76.245,328.674,72.797,328.55,69.332z"
			/>
		<path d="M399.716,77.405c0,0.31,0.216,0.526,0.649,0.649c0.432,0,1.932-0.881,4.5-2.644c2.565-1.763,4.02-2.738,4.36-2.923
			c0.339-0.186,0.664-0.278,0.974-0.278c0.866,0,1.299,0.417,1.299,1.252c0,0.835-2.18,2.677-6.542,5.521
			c-4.36,2.844-7.438,4.268-9.231,4.268c-0.742,0-1.532-0.31-2.367-0.928c-0.834-0.618-1.252-1.345-1.252-2.18
			c0-0.835,0.216-1.747,0.649-2.737c0.433-0.99,0.649-1.655,0.649-1.995c0-0.339-0.093-0.511-0.278-0.511
			c-0.186,0-0.371,0.063-0.557,0.186c-6.001,4.517-10.424,6.773-13.269,6.773c-1.609,0-2.876-0.588-3.804-1.763
			c-0.928-1.174-1.484-2.35-1.67-3.525l-0.186-1.764c0-2.041,0.789-4.407,2.366-7.098s3.649-5.256,6.217-7.701
			c2.566-2.443,5.721-4.5,9.464-6.171c3.742-1.67,7.562-2.505,11.458-2.505c2.102,0,4.067,0.557,5.892,1.67
			c1.825,1.114,2.737,2.413,2.737,3.897s-1.454,2.382-4.36,2.691c-2.167,0.496-5.739,2.273-10.717,5.335
			c-4.98,3.062-7.469,5.398-7.469,7.005c0,0.682,0.339,1.021,1.021,1.021c1.237,0,4.159-1.763,8.768-5.289
			c4.608-3.525,7.377-5.289,8.305-5.289c0.928,0,1.392,0.557,1.392,1.671c0,0.805-0.294,1.563-0.881,2.273
			c-0.589,0.712-1.006,1.222-1.252,1.531c-0.496,0.619-1.764,1.995-3.805,4.129C400.736,74.111,399.716,75.92,399.716,77.405z
			 M429.872,37.785c0.309,0.805,0.464,1.455,0.464,1.949c0,1.485-0.99,2.691-2.969,3.619c-1.98,0.928-3.959,1.484-5.938,1.67
			l-2.97,0.278c-1.547,0.248-4.083,1.299-7.608,3.154l-1.67,0.835c-0.556-0.309-0.834-0.71-0.834-1.206
			c0-1.979,2.071-4.607,6.216-7.887c4.143-3.278,7.546-4.917,10.206-4.917C427.427,35.279,429.129,36.114,429.872,37.785z"/>
		<path d="M426.53,67.477c-2.598,0-4.964-0.587-7.098-1.763c-2.134-1.174-3.201-2.969-3.201-5.382c0-3.154,2.227-5.876,6.681-8.166
			c4.453-2.287,9.061-3.433,13.825-3.433c2.969,0,5.382,0.542,7.238,1.624c1.855,1.083,2.767,2.691,2.737,4.825
			c-0.033,2.134-1.64,4.052-4.825,5.753c-3.187,1.702-5.305,2.551-6.356,2.551c-1.053,0-1.577-0.216-1.577-0.649
			c0-0.433,0.2-0.757,0.603-0.975c0.401-0.216,1.283-0.633,2.644-1.252c1.36-0.618,2.351-1.128,2.97-1.531
			c0.618-0.402,0.928-0.727,0.928-0.974c0-0.247-0.278-0.372-0.834-0.372c-2.042,0-5.243,0.728-9.604,2.181
			c-4.361,1.454-6.542,2.644-6.542,3.572c0,0.557,1.237,0.835,3.712,0.835c6.124,0,9.186,2.444,9.186,7.33
			c0,2.167-1.3,4.129-3.897,5.892c-2.598,1.763-5.259,3.016-7.98,3.758c-2.723,0.742-4.903,1.113-6.542,1.113
			c-1.639,0-3.449-0.742-5.428-2.227c-1.98-1.484-2.97-2.969-2.97-4.453c0-1.485,1.949-2.566,5.846-3.248
			c1.731-0.246,4.021-0.819,6.867-1.716c2.844-0.897,4.268-1.748,4.268-2.552C427.18,67.724,426.962,67.477,426.53,67.477z"/>
		<path d="M450.794,60.285c3.123-1.824,6.339-3.294,9.649-4.407c3.308-1.114,6.216-1.67,8.722-1.67c2.505,0,4.561,0.758,6.17,2.272
			c1.607,1.517,2.413,2.846,2.413,3.99c0,1.145-2.661,2.212-7.98,3.201c-2.29,0.434-5.49,1.918-9.603,4.454
			c-4.115,2.537-6.171,4.516-6.171,5.938c0,0.62,0.309,0.928,0.928,0.928c2.227,0,7.422-2.658,15.588-7.979
			c0.432-0.247,0.896-0.587,1.392-1.02c0.928-0.804,1.592-1.207,1.995-1.207c0.402,0,0.756,0.231,1.067,0.696
			c0.309,0.463,0.464,0.928,0.464,1.392c0,0.463-0.294,1.021-0.882,1.67c-0.588,0.649-4.161,4.857-10.716,12.619
			c-6.558,7.762-10.13,11.97-10.717,12.619c-0.589,0.649-2.367,2.922-5.335,6.82c-3.279,4.329-4.917,6.587-4.917,6.773
			c0,0.186,0.153,0.278,0.463,0.278c0.309,0,1.33-0.542,3.062-1.624c1.731-1.083,2.814-1.656,3.248-1.717
			c0.928,0.061,1.392,0.464,1.392,1.206c0,1.67-2.104,3.865-6.31,6.588c-4.207,2.721-7.237,4.083-9.093,4.083
			s-3.371-0.603-4.546-1.81c-1.174-1.206-1.793-2.567-1.856-4.082c-0.061-1.517,0.882-3.665,2.83-6.448
			c1.949-2.784,3.774-5.12,5.475-7.006c1.701-1.888,3.804-3.959,6.309-6.217c2.506-2.259,4.717-4.191,6.634-5.799
			c4.825-3.957,7.669-6.216,8.537-6.773c0.618-0.432,0.928-0.756,0.928-0.974c0-0.216-0.109-0.324-0.324-0.324
			c-0.218,0-1.981,0.896-5.29,2.69c-3.31,1.793-5.784,2.691-7.422,2.691c-1.641,0-3.264-0.696-4.871-2.088
			c-1.609-1.392-2.413-2.953-2.413-4.686c0-2.784,1.082-5.535,3.248-8.258C445.025,64.384,447.669,62.111,450.794,60.285z"/>
		<path d="M520.986,67.105c0.866,0,1.3,0.464,1.3,1.392c0,0.928-1.362,2.552-4.084,4.872c-2.723,2.319-5.954,4.469-9.695,6.448
			c-3.742,1.979-6.82,2.969-9.231,2.969c-3.033,0-4.547-1.64-4.547-4.917c0-0.803,0.309-1.685,0.927-2.645
			c0.618-0.958,0.929-1.499,0.929-1.624c0-0.372-0.218-0.557-0.65-0.557c-0.434,0-0.727,0.033-0.881,0.093
			c-0.155,0.063-1.222,0.682-3.202,1.856c-5.628,3.465-9.217,5.196-10.763,5.196s-2.892-0.51-4.036-1.531
			c-1.146-1.021-1.716-2.18-1.716-3.479c0-2.599,0.928-5.257,2.783-7.98c1.856-2.721,3.99-5.011,6.403-6.866
			c2.411-1.856,4.653-3.371,6.727-4.546c2.071-1.175,3.479-1.763,4.222-1.763s1.669,0.526,2.782,1.577
			c1.113,1.053,1.671,2.057,1.671,3.016c0,0.959-0.34,1.716-1.021,2.272c-4.578,4.021-6.864,6.806-6.864,8.351
			c0,0.805,0.371,1.207,1.113,1.207c1.793,0,4.359-1.468,7.699-4.407c3.343-2.937,6.063-5.614,8.167-8.026
			c1.669-1.732,3.122-2.598,4.359-2.598c1.238,0,2.46,0.449,3.665,1.345c1.206,0.897,1.811,1.702,1.811,2.413
			c0,0.711-0.155,1.33-0.464,1.855c-0.312,0.526-1.547,2.167-3.712,4.917c-2.166,2.753-3.542,4.5-4.128,5.243
			c-0.589,0.742-0.883,1.362-0.883,1.855c0,0.496,0.125,0.742,0.371,0.742c0.247,0,0.479-0.014,0.696-0.046
			c0.217-0.03,0.988-0.511,2.319-1.438c1.329-0.927,2.738-1.948,4.223-3.062C519.19,67.817,520.431,67.105,520.986,67.105z"/>
		<path d="M535.459,63.115l4.547-0.463c2.103,0,3.155,1.053,3.155,3.155c0,1.113-1.02,2.352-3.062,3.711
			c-2.042,1.361-4.099,2.614-6.171,3.758c-2.073,1.145-3.107,2.026-3.107,2.644c0,0.434,0.494,0.711,1.484,0.835
			c2.163,0,6.276-1.732,12.34-5.197c6.061-3.464,9.31-5.196,9.742-5.196c0.865,0,1.298,0.433,1.298,1.299
			c-0.06,0.619-2.026,2.15-5.891,4.593c-3.867,2.444-8.382,4.793-13.547,7.051c-5.166,2.257-9.108,3.387-11.831,3.387
			c-4.267,0-6.401-2.257-6.401-6.773c0-1.3,0.882-2.721,2.644-4.269c1.765-1.545,3.527-2.876,5.289-3.99
			c1.765-1.113,2.645-1.81,2.645-2.087c0-0.278-0.434-0.603-1.298-0.975c-2.6-1.113-3.897-2.598-3.897-4.454
			c0-3.464,2.891-6.757,8.676-9.882c5.782-3.123,11.148-4.686,16.098-4.686c2.722,0,4.979,0.51,6.772,1.531
			c1.794,1.021,2.691,2.568,2.691,4.639c0,2.074-1.438,4.006-4.313,5.799c-2.876,1.795-4.934,2.691-6.171,2.691
			c-0.495,0-0.944-0.123-1.345-0.372c-0.404-0.246-0.604-0.524-0.604-0.834c0-0.309,0.852-0.819,2.554-1.531
			c1.7-0.71,2.551-1.375,2.551-1.995c0-0.309-0.451-0.464-1.345-0.464c-0.899,0-3.821,0.974-8.771,2.922
			c-4.948,1.95-7.422,3.327-7.422,4.13C532.769,62.776,533.666,63.115,535.459,63.115z"/>
		<path d="M566.17,52.445c0.558,0,2.32-0.448,5.289-1.346c2.969-0.896,5.058-1.345,6.263-1.345c1.206,0,2.366,0.31,3.479,0.927
			c1.113,0.619,1.671,1.484,1.671,2.599c0,1.114-0.682,2.319-2.042,3.618c-1.36,1.299-3.124,2.816-5.289,4.546
			c-2.166,1.733-4.145,3.294-5.938,4.686c-1.796,1.392-2.784,2.197-2.969,2.412c-0.187,0.218-0.278,0.48-0.278,0.789
			c0,0.311,0.245,0.464,0.742,0.464c2.782-0.432,4.392-0.65,4.824-0.65c1.731,0,3.557,0.589,5.474,1.763
			c1.918,1.176,2.878,2.598,2.878,4.269c0,0.867-0.357,1.609-1.068,2.227c-0.712,0.619-2.012,0.99-3.896,1.113
			c-1.889,0.124-5.459,0.944-10.717,2.459c-5.258,1.515-8.352,2.273-9.278,2.273c-0.929,0-2.166-0.557-3.711-1.67
			c-1.549-1.113-2.319-2.102-2.319-2.969c0-1.422,1.822-3.479,5.473-6.17c3.649-2.691,6.31-4.484,7.98-5.382
			c1.671-0.896,3.324-1.933,4.964-3.108c1.638-1.174,2.46-1.948,2.46-2.32c0-0.371-0.08-0.557-0.233-0.557
			c-0.155,0-1.066,0.248-2.737,0.742c-1.669,0.497-3.153,0.742-4.453,0.742c-1.298,0-2.583-0.494-3.852-1.484
			c-1.267-0.989-1.9-2.366-1.9-4.129s1.654-4.02,4.963-6.773c3.309-2.752,5.984-4.129,8.026-4.129c0.742,0,1.113,0.403,1.113,1.207
			c0,0.433-0.402,0.928-1.207,1.484c-3.03,1.795-4.546,2.862-4.546,3.201C565.335,52.275,565.612,52.445,566.17,52.445z"/>
	</g>
</g>
<g id="Capa_2" display="none">
	<g display="inline">
		<path fill="#333333" d="M456.922,252.915c0,5.997-5.392,15.479-16.174,28.442c3.876,2.667,5.816,4.997,5.816,6.997
			c0,1.333-0.637,2.151-1.909,2.453c-5.938,1.454-11.903,3.332-17.901,5.634c-8.904,8.724-17.689,15.962-26.352,21.718
			c-8.664,5.755-15.662,8.633-20.99,8.633c-2.242,0-4.211-1.167-5.908-3.499c-1.695-2.332-2.543-4.679-2.543-7.041
			c0-4.362,1.529-8.573,4.588-12.632c3.061-4.058,6.951-7.542,11.678-10.45c4.725-2.907,9.873-5.481,15.447-7.724
			c11.025-4.421,20.809-6.634,29.351-6.634c0.728,0,1.757,0.062,3.09,0.183c8.782-9.511,13.177-15.842,13.177-18.992
			c0-1.454-1.031-2.181-3.09-2.181c-2.85,0-6.893,0.924-12.131,2.771c-5.242,1.849-9.922,3.969-14.041,6.359
			c-4.12,2.396-6.18,4.258-6.18,5.59c0,0.424,0.668,0.637,2.001,0.637l7.087-0.909c1.637,0,2.454,0.544,2.454,1.635
			c0,1.213-1.259,2.212-3.771,3c-2.516,0.787-4.895,1.181-7.133,1.181c-4.788,0-8.951-1.137-12.496-3.408
			c-3.544-2.271-5.316-5.406-5.316-9.404c0-3.331,2.53-7.042,7.589-11.132c5.058-4.088,11.222-7.542,18.492-10.358
			c7.269-2.817,13.569-4.226,18.9-4.226C451.5,239.558,456.922,244.01,456.922,252.915z M385.317,320.794
			c0,0.183,0.121,0.273,0.363,0.273c1.394,0,4.347-1.651,8.86-4.952c4.512-3.303,9.707-7.559,15.584-12.768
			c-7.27,3.453-13.221,6.769-17.856,9.95C387.635,316.479,385.317,318.978,385.317,320.794z"/>
		<path fill="#333333" d="M449.744,290.989c0-5.209,1.393-10.646,4.18-16.312c2.785-5.663,6.329-10.768,10.632-15.311
			c4.3-4.544,8.905-8.692,13.812-12.449c4.907-3.756,9.617-6.664,14.131-8.724c4.512-2.06,8.192-3.09,11.04-3.09
			c1.091,0,2.286,0.425,3.59,1.272c1.302,0.849,1.954,1.833,1.954,2.953c0,1.122-1.123,3.212-3.363,6.271
			c-2.241,3.06-4.952,6.528-8.133,10.403c-3.18,3.878-6.375,7.877-9.586,11.996c-3.212,4.119-5.938,8.178-8.179,12.176
			c-2.241,3.999-3.362,7.239-3.362,9.723c0,0.97,0.484,1.455,1.453,1.455c1.818,0,4.604-1.833,8.361-5.498
			c3.756-3.664,7.92-8.117,12.494-13.358c4.572-5.239,9.328-10.479,14.266-15.721c4.938-5.238,10.026-9.69,15.268-13.356
			c5.239-3.665,9.857-5.498,13.857-5.498c1.149,0,2.362,0.317,3.635,0.954c1.272,0.636,1.908,1.332,1.908,2.09s-0.334,1.35-1,1.772
			c-0.668,0.424-1.803,1.03-3.408,1.817s-3.529,1.803-5.77,3.044c-2.242,1.242-5.18,3.181-8.814,5.814
			c-3.635,2.636-7.572,5.741-11.813,9.315c-10.118,8.541-21.658,20.113-34.621,34.712c-5.211,5.815-12.238,8.723-21.082,8.723
			h-0.091c-2.667,0-5.195-1.681-7.588-5.043C451.121,297.759,449.865,294.383,449.744,290.989z"/>
		<path fill="#333333" d="M589.68,252.915c0,5.997-5.393,15.479-16.174,28.442c3.875,2.667,5.814,4.997,5.814,6.997
			c0,1.333-0.635,2.151-1.907,2.453c-5.938,1.454-11.905,3.332-17.901,5.634c-8.904,8.724-17.689,15.962-26.352,21.718
			c-8.664,5.755-15.662,8.633-20.991,8.633c-2.241,0-4.21-1.167-5.907-3.499c-1.694-2.332-2.544-4.679-2.544-7.041
			c0-4.362,1.53-8.573,4.589-12.632c3.061-4.058,6.951-7.542,11.676-10.45c4.727-2.907,9.874-5.481,15.449-7.724
			c11.024-4.421,20.809-6.634,29.35-6.634c0.727,0,1.757,0.062,3.09,0.183c8.783-9.511,13.176-15.842,13.176-18.992
			c0-1.454-1.03-2.181-3.09-2.181c-2.848,0-6.891,0.924-12.131,2.771c-5.24,1.849-9.92,3.969-14.039,6.359
			c-4.121,2.396-6.179,4.258-6.179,5.59c0,0.424,0.666,0.637,1.999,0.637l7.088-0.909c1.636,0,2.453,0.544,2.453,1.635
			c0,1.213-1.258,2.212-3.77,3c-2.516,0.787-4.895,1.181-7.135,1.181c-4.785,0-8.95-1.137-12.494-3.408
			c-3.543-2.271-5.316-5.406-5.316-9.404c0-3.331,2.529-7.042,7.588-11.132c5.059-4.088,11.223-7.542,18.492-10.358
			c7.27-2.817,13.569-4.226,18.9-4.226C584.258,239.558,589.68,244.01,589.68,252.915z M518.074,320.794
			c0,0.183,0.121,0.273,0.364,0.273c1.394,0,4.347-1.651,8.859-4.952c4.513-3.303,9.708-7.559,15.585-12.768
			c-7.27,3.453-13.223,6.769-17.855,9.95C520.393,316.479,518.074,318.978,518.074,320.794z"/>
	</g>
</g>
</svg>
